<?xml version="1.0" encoding="utf-8" ?><svg xmlns="http://www.w3.org/2000/svg" xmlns:xlink="http://www.w3.org/1999/xlink" width="627" height="316" viewBox="0 0 627 316"><path fill="#9F9C9F" d="M389.706 96.9323C397.655 95.6321 405.107 94.4583 413.247 94.1114C419.206 93.8575 427.488 90.6907 433.13 93.4491C434.946 94.3846 438.822 98.387 438.171 100.579C433.491 106.368 382.149 118.245 371.812 120.348C357.214 123.318 341.815 127.26 327.224 131.472C320.405 132.31 307.851 137.248 300.714 139.106C290.446 142.206 280.255 146.402 270.232 150.194C268.901 150.697 257.479 155.213 256.966 155.196L256.68 154.92C253.587 156.753 251.282 157.678 249.301 160.969C250.267 160.915 253.551 160.679 254.313 160.787L254.358 160.956C239.147 161.818 234.225 164.805 221.486 173.099C213.268 178.45 204.223 182.607 196.2 188.681C187.598 194.257 179.345 200.17 170.484 205.311C164.009 209.067 158.295 214.101 152.518 218.798C151.343 219.769 149.872 220.053 148.675 219.003C147.958 216.831 149.511 216.132 151.099 215.28C153.765 213.558 154.778 211.021 157.261 209.41C159.039 208.257 161.273 207.106 163.136 206.013L175.576 198.626C180.287 195.773 184.81 192.307 189.501 189.424C192.739 187.497 195.86 185.16 199.097 183.302C206.776 178.896 213.71 173.426 221.243 168.84C222.959 167.892 224.616 166.748 226.255 165.664C226.704 164.931 226.644 165.232 226.678 164.418C224.602 163.263 205.437 164.784 202.139 165.352C198.435 165.671 187.45 166.332 184.387 166.912C178.038 167.685 171.676 168.359 165.306 168.936C159.349 169.427 153.632 170.488 147.792 170.995C129.25 172.604 110.986 176.205 92.3702 177.116C90.2884 177.217 88.0162 176.957 86.0299 177.098L84.5866 176.817C81.7385 176.591 79.8772 176.775 77.5934 175.145C77.0757 174.218 77.13 174.634 77.402 173.59C78.2453 172.523 79.5929 172.007 80.83 171.403C84.3249 169.396 87.1869 169.275 90.7324 167.95C94.0803 166.653 97.3738 165.267 100.747 164.03C105.161 162.412 109.714 161.24 114.168 159.784C122.699 156.996 131.238 154.175 139.881 151.753C143.496 150.74 147.033 149.304 150.616 148.177C159.21 145.858 167.616 142.982 176.127 140.416C181.619 138.76 187.55 137.697 193.127 136.174L240.633 123.666C246.583 122.143 252.616 120.344 258.557 118.971C301.839 109.243 345.621 101.885 389.706 96.9323ZM226.812 159.8C230.016 159.198 235.908 159.837 238.818 158.94C245.239 156.961 250.48 153.661 257.195 151.379C260.747 150.082 264.212 148.463 267.754 147.145C274.638 144.347 282.127 142.419 289.019 139.752C300.071 135.474 310.75 132.429 322.238 129.64C333.605 126.53 344.993 123.64 356.299 120.298C360.281 119.098 364.765 118.634 368.732 117.542C378.862 114.754 391.295 113.236 401.161 109.804C402.287 109.615 406.907 108.773 407.611 108.419C410.947 106.742 430.06 101.993 431.658 100.373C431.303 99.4106 430.117 98.7205 429.215 98.3121C420.568 94.3976 389.648 99.6468 379.779 101.019C375.341 101.635 370.837 101.759 366.383 102.25C360.836 102.862 355.215 103.826 349.69 104.658C302.545 111.976 255.836 121.872 209.774 134.302C199.835 137.006 189.144 139.636 179.307 142.661C175.962 143.864 171.976 144.406 168.217 145.684C149.938 151.903 131.3 156.397 113.098 162.965C109.92 164.112 91.4553 172.202 90.2977 172.117C89.9018 172.35 89.6428 172.591 89.2961 172.885L89.4771 173.339C93.9388 175.045 106.079 172.842 111.027 172.222C114.911 171.736 119.555 172.079 123.555 171.552C126.705 171.137 129.8 170.311 132.903 169.866C146.454 167.922 159.98 166.526 173.533 164.674C176.958 164.206 181.209 164.389 184.769 164.115C189.984 163.714 195.082 163.111 200.263 162.424C209.434 162.213 217.713 159.844 226.812 159.8Z"/><path fill="#ADAAAC" d="M200.263 162.424C209.434 162.213 217.713 159.844 226.812 159.8C232.733 159.883 232.678 164.242 228.023 166.172C227.448 166.04 226.773 165.924 226.255 165.664C226.704 164.931 226.644 165.232 226.678 164.418C224.602 163.263 205.437 164.784 202.139 165.352C198.435 165.671 187.45 166.332 184.387 166.912C178.038 167.685 171.676 168.359 165.306 168.936C159.349 169.427 153.632 170.488 147.792 170.995C129.25 172.604 110.986 176.205 92.3702 177.116C90.2884 177.217 88.0162 176.957 86.0299 177.098C85.5587 175.476 84.901 175.07 84.6829 172.972C85.4078 170.796 88.2424 171.822 90.2977 172.117C89.9018 172.35 89.6428 172.591 89.2961 172.885L89.4771 173.339C93.9388 175.045 106.079 172.842 111.027 172.222C114.911 171.736 119.555 172.079 123.555 171.552C126.705 171.137 129.8 170.311 132.903 169.866C146.454 167.922 159.98 166.526 173.533 164.674C176.958 164.206 181.209 164.389 184.769 164.115C189.984 163.714 195.082 163.111 200.263 162.424Z"/><path fill="#8A868A" d="M80.83 171.403C82.604 173.291 84.1428 173.937 84.5866 176.817C81.7385 176.591 79.8772 176.775 77.5934 175.145C77.0757 174.218 77.13 174.634 77.402 173.59C78.2453 172.523 79.5929 172.007 80.83 171.403Z"/><path fill="#ADAAAC" d="M571.723 150.094C574.334 149.568 577.912 150.164 579.561 152.457C579.728 153.485 579.799 153.064 579.227 154.034C577.884 155.011 575.348 155.171 573.681 155.178C568.613 155.329 563.221 155.568 558.176 155.53C545.233 155.432 532.376 154.546 519.434 154.552C472.429 154.194 425.421 154.533 378.426 155.569L343.768 156.276C334.118 156.425 324.344 156.299 314.743 157.171C309.067 157.524 303.62 158.108 297.865 158.344C294.224 158.493 283.415 158.647 280.6 159.188C271.863 159.288 262.395 160.812 254.313 160.787C253.551 160.679 250.267 160.915 249.301 160.969C251.282 157.678 253.587 156.753 256.68 154.92L256.966 155.196C256.328 156.122 256.4 155.763 256.372 156.7C258.802 158.135 290.336 155.329 295.375 154.93C300.694 154.51 308.644 154.531 314.117 154.303C316.978 154.498 321.697 154.218 324.622 154.134C335.745 153.814 347.465 152.407 358.548 152.266L441.917 151.888L522.749 152.012L548.324 152.021C555.616 152.025 564.966 152.706 571.723 150.094Z"/><path fill="#8A868A" d="M571.723 150.094C574.334 149.568 577.912 150.164 579.561 152.457C579.728 153.485 579.799 153.064 579.227 154.034C577.884 155.011 575.348 155.171 573.681 155.178L573.622 154.845C572.28 153.645 571.907 151.793 571.723 150.094Z"/><path fill="#ADAAAC" d="M370.821 197.117C373.381 197.103 375.429 197.895 378.027 197.802C412.044 196.587 445.968 196.493 479.923 199.227C487.476 199.835 495.689 199.179 503.34 199.882C509.389 200.438 515.519 201.614 521.546 201.857C524.921 202.009 528.298 202.096 531.676 202.117C533.763 202.529 538.077 203.929 538.059 206.479C536.347 209.237 523.024 208.993 519.185 209.395C519.902 208.545 519.67 207.863 519.639 206.742C521.554 206.668 523.263 206.583 525.172 206.405C522.7 206.104 517.654 207.147 516.234 205.547L515.051 205.054C512.161 204.11 503.295 203.902 499.84 203.672C491.429 203.109 481.713 201.604 473.367 201.551C452.727 201.418 432.139 200.874 411.504 200.951C409.444 200.959 408.5 202.14 407.219 203.541C404.168 208.09 401.807 203.354 398.477 203.46C392.376 203.653 385.545 203.242 379.531 203.783C371.459 204.51 367.098 204.363 359.257 202.463C359.474 202.402 360.303 202.308 360.575 202.271C360.168 201.642 358.487 200.948 357.713 200.568C357.369 199.859 357.333 199.655 356.74 199.175L357.735 198.706C359.109 197.913 363.894 197.679 365.741 197.508L365.677 197.206L366.254 197.349L364.528 197.151C365.897 197.013 369.564 196.82 370.821 197.117Z"/><path fill="#8A868A" d="M364.528 197.151C365.897 197.013 369.564 196.82 370.821 197.117L370.758 197.39C372.852 198.156 373.548 199.289 376.093 199.563C379.255 199.904 382.294 199.587 385.461 199.551C392.019 199.585 398.924 199.755 405.213 201.772C405.886 201.987 406.652 203.138 407.219 203.541C404.168 208.09 401.807 203.354 398.477 203.46C392.376 203.653 385.545 203.242 379.531 203.783C371.459 204.51 367.098 204.363 359.257 202.463C359.474 202.402 360.303 202.308 360.575 202.271C360.168 201.642 358.487 200.948 357.713 200.568C357.369 199.859 357.333 199.655 356.74 199.175L357.735 198.706C359.109 197.913 363.894 197.679 365.741 197.508L365.677 197.206L366.254 197.349L364.528 197.151Z"/><path fill="#8A868A" d="M531.676 202.117C533.763 202.529 538.077 203.929 538.059 206.479C536.347 209.237 523.024 208.993 519.185 209.395C519.902 208.545 519.67 207.863 519.639 206.742C521.554 206.668 523.263 206.583 525.172 206.405C527.016 206.367 528.054 206.253 529.847 206.779C531.073 207.148 531.588 207.3 532.597 206.568C532.998 205.087 532.493 203.814 531.152 203.07C531.165 202.653 531.405 202.452 531.676 202.117Z"/><defs><linearGradient id="gradient_0" gradientUnits="userSpaceOnUse" x1="519.87885" y1="208.78818" x2="528.73022" y2="202.18428"><stop offset="0" stop-color="#FCEEFA"/><stop offset="1" stop-color="#B4BBB5"/></linearGradient></defs><path fill="url(#gradient_0)" d="M525.401 204.293C527.738 203.972 530.825 203.535 532.631 205.542C531.978 206.869 531.273 206.72 529.847 206.779C528.054 206.253 527.016 206.367 525.172 206.405C522.7 206.104 517.654 207.147 516.234 205.547L515.051 205.054C516.094 204.216 522.594 204.82 525.401 204.293Z"/><path fill="#9F9C9F" d="M521.546 201.857C524.921 202.009 528.298 202.096 531.676 202.117C531.405 202.452 531.165 202.653 531.152 203.07C532.493 203.814 532.998 205.087 532.597 206.568C531.588 207.3 531.073 207.148 529.847 206.779C531.273 206.72 531.978 206.869 532.631 205.542C530.825 203.535 527.738 203.972 525.401 204.293C523.595 204.387 522.646 204.367 520.856 204.255C522.205 204.129 524.588 203.969 525.647 203.168L525.684 202.642C524.268 202.533 522.512 202.748 521.546 201.857Z"/><path fill="#9F9C9F" d="M255.4 209.726C261.198 208.705 267.645 208.271 273.587 207.229C278.731 206.327 284.231 206.476 289.608 205.438C295.249 204.35 301.246 204.333 307.047 203.319C309.097 206.233 314.803 204.691 317.083 205.536C313.987 206.381 308.353 206.294 304.955 206.69C296.129 207.503 287.34 209.496 278.61 210.673C271.495 211.632 264.713 212.464 257.569 213.577C243.863 215.711 230.251 218.305 216.662 221.134C203.734 223.826 191.076 227.646 178.397 231.29C173.359 232.735 155.016 237.928 151.228 240.135C150.778 241.601 150.161 243.989 148.78 244.323C143.039 245.709 141.498 240.064 148.573 237.496C169.859 229.769 191.694 224.208 213.677 218.797L231.296 214.589C233.235 214.107 238.817 212.5 240.334 212.238C242.031 211.684 243.725 211.12 245.416 210.548L246.598 207.274C247.697 208.159 248.749 209.1 250.034 209.674C250.823 209.449 251.665 209.055 252.31 209.344L252.517 209.697L255.4 209.726Z"/><path fill="#ADAAAC" d="M246.598 207.274C247.697 208.159 248.749 209.1 250.034 209.674C250.823 209.449 251.665 209.055 252.31 209.344L252.517 209.697L255.4 209.726L255.181 209.871C254.494 210.332 254.235 210.474 253.804 211.211C251.75 211.929 242.119 213.329 240.334 212.238C242.031 211.684 243.725 211.12 245.416 210.548L246.598 207.274Z"/><path fill="#ADAAAC" d="M516.234 205.547C517.654 207.147 522.7 206.104 525.172 206.405C523.263 206.583 521.554 206.668 519.639 206.742C519.67 207.863 519.902 208.545 519.185 209.395C515.478 209.572 511.479 210.214 508.002 210.329C499.768 210.601 490.678 211.407 482.519 211.395C463.573 211.366 444.677 211.263 425.727 211.633C417.059 211.802 408.311 213.389 399.47 213.511L399.294 212.807C398.107 212.243 396.239 212.286 394.571 211.876C398.049 211.87 404.191 211.485 407.362 210.012L406.95 209.588C414.168 208.309 425.062 208.931 432.868 208.553C438.371 208.288 447.799 206.981 452.673 207.084C471.539 207.484 490.327 208.242 509.199 207.034C511.079 206.914 513.648 206.801 515.543 206.507C516.007 206.435 516.074 205.97 516.234 205.547Z"/><path fill="#9F9C9F" d="M272.175 193.585C283.853 189.578 296.232 184.143 308.46 181.794C309.716 181.552 312.92 181.644 314.299 181.671C313.103 181.95 312.745 182.052 311.521 182.045C312.206 182.776 312.551 184.395 312.597 185.382L313.208 185.599C310.9 186.303 303.547 188.117 301.2 188.182C293.49 188.395 289.628 190.491 282.547 192.89C273.581 195.928 265.634 198.464 258.039 204.486C256.53 205.656 253.031 207.706 252.517 209.697L252.31 209.344C251.665 209.055 250.823 209.449 250.034 209.674C248.749 209.1 247.697 208.159 246.598 207.274C248.196 205.803 251.533 204.114 253.56 203.002C260.563 199.161 269.151 193.283 271.421 185.062C272.154 184.413 274.032 184.426 274.851 184.886C273.465 187.794 272.874 190.454 272.175 193.585Z"/><path fill="#ADAAAC" d="M314.299 181.671C317.701 181.537 319.109 181.657 319.909 185.289C319.318 186.832 317.085 191.126 319.287 191.799C325.176 190.225 329.517 186.455 334.941 191.826C338.011 190.944 339.287 189.6 342.225 189.062C344.694 188.61 346.918 190.889 348.879 191.22C352.36 191.806 355.559 191.256 359.103 192.213C360.625 193.344 360.532 195.737 360.684 197.523C361.898 197.338 363.324 197.056 364.528 197.151L366.254 197.349L365.677 197.206L365.741 197.508C363.894 197.679 359.109 197.913 357.735 198.706C357.633 197.952 357.184 196.165 356.807 195.567C355.695 193.293 348.146 194.914 346.938 194.279C340.174 190.726 338.37 196.236 332.048 196.111C331.001 196.09 329.994 193.485 329.467 192.534C326.487 190.912 316.647 198.765 313.142 194.921C312.031 191.286 315.896 188.301 314.273 185.654L313.208 185.599L312.597 185.382C312.551 184.395 312.206 182.776 311.521 182.045C312.745 182.052 313.103 181.95 314.299 181.671Z"/><defs><linearGradient id="gradient_1" gradientUnits="userSpaceOnUse" x1="395.82309" y1="213.45219" x2="393.34659" y2="206.07239"><stop offset="0" stop-color="#D4D1D3"/><stop offset="1" stop-color="#A5A1A7"/></linearGradient></defs><path fill="url(#gradient_1)" d="M390.9 207.68C394.384 207.217 398.036 207.354 401.548 207.435C403.682 207.537 403.545 209.044 406.95 209.588L407.362 210.012C404.191 211.485 398.049 211.87 394.571 211.876C396.239 212.286 398.107 212.243 399.294 212.807L399.47 213.511C399.082 213.631 389.601 213.956 388.206 214.06C384.653 214.324 380.547 214.732 376.921 215.148C374.445 215.433 373.838 215.055 372.007 213.544C372.225 210.158 377.639 209.589 380.405 209.136C383.838 208.572 387.44 208.075 390.9 207.68Z"/><defs><linearGradient id="gradient_2" gradientUnits="userSpaceOnUse" x1="386.31546" y1="215.03683" x2="385.461" y2="210.08235"><stop offset="0" stop-color="#908D92"/><stop offset="1" stop-color="#777277"/></linearGradient></defs><path fill="url(#gradient_2)" d="M372.007 213.544C374.335 211.575 381.497 210.813 384.629 210.624C387.49 210.451 391.642 211.425 394.571 211.876C396.239 212.286 398.107 212.243 399.294 212.807L399.47 213.511C399.082 213.631 389.601 213.956 388.206 214.06C384.653 214.324 380.547 214.732 376.921 215.148C374.445 215.433 373.838 215.055 372.007 213.544Z"/><path fill="#ADAAAC" d="M390.9 207.68C394.384 207.217 398.036 207.354 401.548 207.435C398.191 207.98 396.075 209.856 393.118 208.45C393.773 208.511 394.521 208.659 395.111 208.426C394.33 208.286 391.445 207.906 390.9 207.68Z"/><path fill="#ADAAAC" d="M307.047 203.319C316.188 201.578 323.815 201.757 333.069 201.196C336.17 201.009 339.782 199.94 343.074 199.72C347.172 199.447 352.853 199.836 356.74 199.175C357.333 199.655 357.369 199.859 357.713 200.568C358.487 200.948 360.168 201.642 360.575 202.271C360.303 202.308 359.474 202.402 359.257 202.463C357.147 203.042 354.85 203.076 352.665 203.215C344.255 203.749 335.85 204.354 327.424 204.588C324.024 204.682 320.418 205.542 317.083 205.536C314.803 204.691 309.097 206.233 307.047 203.319Z"/><path fill="#8A868A" d="M271.338 184.648C268.915 184.431 264.344 184.681 263.388 182.071C263.37 178.988 274.122 171.437 277.316 174.51C278.113 176.004 277.376 177.32 276.179 178.229C273.484 181.681 276.287 182.638 274.851 184.886C274.032 184.426 272.154 184.413 271.421 185.062L271.338 184.648Z"/><defs><linearGradient id="gradient_3" gradientUnits="userSpaceOnUse" x1="302.66684" y1="160.88994" x2="301.7377" y2="156.32271"><stop offset="0" stop-color="#DEDAE6" stop-opacity="0"/><stop offset="1" stop-color="#C2C0BF" stop-opacity="0.0078431377"/></linearGradient></defs><path fill="url(#gradient_3)" d="M280.6 159.188C283.415 158.647 294.224 158.493 297.865 158.344C303.62 158.108 309.067 157.524 314.743 157.171C315.479 157.705 316.07 157.74 316.935 157.861L317.154 158.124C314.234 159.324 285.184 159.938 280.6 159.188Z"/><defs><linearGradient id="gradient_4" gradientUnits="userSpaceOnUse" x1="175.18466" y1="170.9146" x2="173.52286" y2="166.2133"><stop offset="0" stop-color="#D4D5DE" stop-opacity="0"/><stop offset="1" stop-color="#BEB6C2" stop-opacity="0.011764706"/></linearGradient></defs><path fill="url(#gradient_4)" d="M165.306 168.936C171.676 168.359 178.038 167.685 184.387 166.912L184.191 168.044C180.912 168.788 168.641 169.6 165.074 169.779L164.816 169.512L165.306 168.936Z"/></svg>